<?xml version="1.0" standalone="no"?>
<!DOCTYPE svg PUBLIC "-//W3C//DTD SVG 1.1//EN" "http://www.w3.org/Graphics/SVG/1.1/DTD/svg11.dtd">
<svg version="1.1" width="1200" height="456"
     xmlns="http://www.w3.org/2000/svg" xmlns:xlink="http://www.w3.org/1999/xlink">
<style type="text/css">
    .func_g:hover { stroke:black; stroke-width:0.5; cursor:pointer; }
</style>
<svg class="func_g" x="0.0" y="192" width="1184.1376456679616" height="23"><g>
    <title>~:0:&lt;built-in method builtins.exec&gt; 98.76% (1 1 1.362e-06 1.7543e-05)</title>
    <rect height="100%" width="100%" fill="rgb(255, 215, 125)" rx="2" ry="2" />
    <text alignment-baseline="central" x="4.0" y="12.0" font-size="12px" fill="rgb(0,0,0)">&lt;built-in method builtins.exec&gt;</text>
</g></svg>
<svg class="func_g" x="0.0" y="168" width="1092.1261611214322" height="23"><g>
    <title>TestProgram2.py:1:&lt;module&gt; 91.09% (1 1 2.426e-06 1.6181e-05)</title>
    <rect height="100%" width="100%" fill="rgb(255, 215, 125)" rx="2" ry="2" />
    <text alignment-baseline="central" x="4.0" y="12.0" font-size="12px" fill="rgb(0,0,0)">&lt;module&gt;</text>
</g></svg>
<svg class="func_g" x="0.0" y="144" width="928.2349265326803" height="23"><g>
    <title>TestProgram2.py:2:main 77.44% (1 1 4.107000000000001e-06 1.3755000000000001e-05)</title>
    <rect height="100%" width="100%" fill="rgb(255, 190, 110)" rx="2" ry="2" />
    <text alignment-baseline="central" x="4.0" y="12.0" font-size="12px" fill="rgb(0,0,0)">main</text>
</g></svg>
<svg class="func_g" x="0.0" y="120" width="535.6661036986997" height="23"><g>
    <title>TestProgram2.py:13:A 44.72% (1 1 4.437e-06 7.944e-06)</title>
    <rect height="100%" width="100%" fill="rgb(255, 115, 64)" rx="2" ry="2" />
    <text alignment-baseline="central" x="4.0" y="12.0" font-size="12px" fill="rgb(0,0,0)">A</text>
</g></svg>
<svg class="func_g" x="0.0" y="96" width="235.91943928390478" height="23"><g>
    <title>TestProgram2.py:18:B 19.74% (1 1 2.064e-06 3.507e-06)</title>
    <rect height="100%" width="100%" fill="rgb(255, 90, 49)" rx="2" ry="2" />
    <text alignment-baseline="central" x="4.0" y="12.0" font-size="12px" fill="rgb(0,0,0)">B</text>
</g></svg>
<svg class="func_g" x="0.0" y="72" width="96.48353318696167" height="23"><g>
    <title>TestProgram2.py:23:C 8.12% (1 1 3.41e-07 1.443e-06)</title>
    <rect height="100%" width="100%" fill="rgb(255, 165, 95)" rx="2" ry="2" />
    <text alignment-baseline="central" x="4.0" y="12.0" font-size="12px" fill="rgb(0,0,0)">C</text>
</g></svg>
<svg class="func_g" x="0.0" y="48" width="73.44688397230198" height="23"><g>
    <title>TestProgram2.py:26:D 6.20% (1 1 4.01e-07 1.102e-06)</title>
    <rect height="100%" width="100%" fill="rgb(255, 215, 125)" rx="2" ry="2" />
    <text alignment-baseline="central" x="4.0" y="12.0" font-size="12px" fill="rgb(0,0,0)">D</text>
</g></svg>
<svg class="func_g" x="0.0" y="24" width="46.35686539435907" height="23"><g>
    <title>TestProgram2.py:29:E 3.95% (1 1 4.51e-07 7.01e-07)</title>
    <rect height="100%" width="100%" fill="rgb(255, 165, 95)" rx="2" ry="2" />
    <text alignment-baseline="central" x="4.0" y="12.0" font-size="12px" fill="rgb(0,0,0)">E</text>
</g></svg>
<svg class="func_g" x="0.0" y="0" width="15.889039013680122" height="23"><g>
    <title>TestProgram2.py:32:F 1.41% (1 1 2.5000000000000004e-07 2.5000000000000004e-07)</title>
    <rect height="100%" width="100%" fill="rgb(255, 190, 110)" rx="2" ry="2" />
    <text alignment-baseline="central" x="4.0" y="12.0" font-size="12px" fill="rgb(0,0,0)">F</text>
</g></svg>
<svg class="func_g" x="536.6661036986997" y="120" width="114.11568991724373" height="23"><g>
    <title>TestProgram2.py:35:G 9.59% (1 1 4.7200000000000004e-07 1.7040000000000001e-06)</title>
    <rect height="100%" width="100%" fill="rgb(255, 165, 95)" rx="2" ry="2" />
    <text alignment-baseline="central" x="4.0" y="12.0" font-size="12px" fill="rgb(0,0,0)">G</text>
</g></svg>
<svg class="func_g" x="536.6661036986997" y="96" width="82.22918425941565" height="23"><g>
    <title>TestProgram2.py:39:H 6.94% (1 1 4.01e-07 1.232e-06)</title>
    <rect height="100%" width="100%" fill="rgb(255, 190, 110)" rx="2" ry="2" />
    <text alignment-baseline="central" x="4.0" y="12.0" font-size="12px" fill="rgb(0,0,0)">H</text>
</g></svg>
<svg class="func_g" x="536.6661036986997" y="72" width="55.13916568147274" height="23"><g>
    <title>TestProgram2.py:42:I 4.68% (1 1 3.6000000000000005e-07 8.310000000000001e-07)</title>
    <rect height="100%" width="100%" fill="rgb(255, 165, 95)" rx="2" ry="2" />
    <text alignment-baseline="central" x="4.0" y="12.0" font-size="12px" fill="rgb(0,0,0)">I</text>
</g></svg>
<svg class="func_g" x="536.6661036986997" y="48" width="30.818949501773353" height="23"><g>
    <title>TestProgram2.py:45:J 2.65% (1 1 3.41e-07 4.71e-07)</title>
    <rect height="100%" width="100%" fill="rgb(255, 215, 125)" rx="2" ry="2" />
    <text alignment-baseline="central" x="4.0" y="12.0" font-size="12px" fill="rgb(0,0,0)">J</text>
</g></svg>
<svg class="func_g" x="536.6661036986997" y="24" width="7.782300287113664" height="23"><g>
    <title>TestProgram2.py:48:K 0.73% (1 1 1.3e-07 1.3e-07)</title>
    <rect height="100%" width="100%" fill="rgb(255, 90, 49)" rx="2" ry="2" />
    <text alignment-baseline="central" x="4.0" y="12.0" font-size="12px" fill="rgb(0,0,0)">K</text>
</g></svg>
<svg class="func_g" x="1185.1376456679616" y="192" width="13.862354332038509" height="23"><g>
    <title>~:0:&lt;method 'disable' of '_lsprof.Profiler' objects&gt; 1.24% (1 1 2.2e-07 2.2e-07)</title>
    <rect height="100%" width="100%" fill="rgb(255, 190, 110)" rx="2" ry="2" />
    <text alignment-baseline="central" x="4.0" y="12.0" font-size="12px" fill="rgb(0,0,0)">&lt;method 'disable' of '_lsprof.Profiler' objects&gt;</text>
</g></svg>
<svg class="func_g" x="0.0" y="240" width="162.8912345887519" height="23"><g>
    <title>TestProgram2.py:1:&lt;module&gt; 13.66% (1 1 2.426e-06 1.6181e-05)</title>
    <rect height="100%" width="100%" fill="rgb(255, 215, 125)" rx="2" ry="2" />
    <text alignment-baseline="central" x="4.0" y="12.0" font-size="12px" fill="rgb(0,0,0)">&lt;module&gt;</text>
</g></svg>
<svg class="func_g" x="0.0" y="264" width="162.8912345887519" height="23"><g>
    <title>~:0:&lt;built-in method builtins.exec&gt; 13.66% (1 1 2.426e-06 1.6181e-05)</title>
    <rect height="100%" width="100%" fill="rgb(197, 197, 197)" rx="2" ry="2" />
    <text alignment-baseline="central" x="4.0" y="12.0" font-size="12px" fill="rgb(0,0,0)">&lt;built-in method builtins.exec&gt;</text>
</g></svg>
<svg class="func_g" x="163.8912345887519" y="240" width="276.4531329167371" height="23"><g>
    <title>TestProgram2.py:2:main 23.12% (1 1 4.107000000000001e-06 1.3755000000000001e-05)</title>
    <rect height="100%" width="100%" fill="rgb(255, 190, 110)" rx="2" ry="2" />
    <text alignment-baseline="central" x="4.0" y="12.0" font-size="12px" fill="rgb(0,0,0)">main</text>
</g></svg>
<svg class="func_g" x="163.8912345887519" y="264" width="276.4531329167371" height="23"><g>
    <title>TestProgram2.py:1:&lt;module&gt; 23.12% (1 1 4.107000000000001e-06 1.3755000000000001e-05)</title>
    <rect height="100%" width="100%" fill="rgb(197, 197, 197)" rx="2" ry="2" />
    <text alignment-baseline="central" x="4.0" y="12.0" font-size="12px" fill="rgb(0,0,0)">&lt;module&gt;</text>
</g></svg>
<svg class="func_g" x="163.8912345887519" y="288" width="276.4531329167371" height="23"><g>
    <title>~:0:&lt;built-in method builtins.exec&gt; 13.66% (1 1 2.426e-06 1.6181e-05)</title>
    <rect height="100%" width="100%" fill="rgb(197, 197, 197)" rx="2" ry="2" />
    <text alignment-baseline="central" x="4.0" y="12.0" font-size="12px" fill="rgb(0,0,0)">&lt;built-in method builtins.exec&gt;</text>
</g></svg>
<svg class="func_g" x="441.344367505489" y="240" width="298.7466644147948" height="23"><g>
    <title>TestProgram2.py:13:A 24.98% (1 1 4.437e-06 7.944e-06)</title>
    <rect height="100%" width="100%" fill="rgb(255, 115, 64)" rx="2" ry="2" />
    <text alignment-baseline="central" x="4.0" y="12.0" font-size="12px" fill="rgb(0,0,0)">A</text>
</g></svg>
<svg class="func_g" x="441.344367505489" y="264" width="298.7466644147948" height="23"><g>
    <title>TestProgram2.py:2:main 24.98% (1 1 4.437e-06 7.944e-06)</title>
    <rect height="100%" width="100%" fill="rgb(204, 204, 204)" rx="2" ry="2" />
    <text alignment-baseline="central" x="4.0" y="12.0" font-size="12px" fill="rgb(0,0,0)">main</text>
</g></svg>
<svg class="func_g" x="441.344367505489" y="288" width="298.7466644147948" height="23"><g>
    <title>TestProgram2.py:1:&lt;module&gt; 23.12% (1 1 4.107000000000001e-06 1.3755000000000001e-05)</title>
    <rect height="100%" width="100%" fill="rgb(197, 197, 197)" rx="2" ry="2" />
    <text alignment-baseline="central" x="4.0" y="12.0" font-size="12px" fill="rgb(0,0,0)">&lt;module&gt;</text>
</g></svg>
<svg class="func_g" x="441.344367505489" y="312" width="298.7466644147948" height="23"><g>
    <title>~:0:&lt;built-in method builtins.exec&gt; 13.66% (1 1 2.426e-06 1.6181e-05)</title>
    <rect height="100%" width="100%" fill="rgb(197, 197, 197)" rx="2" ry="2" />
    <text alignment-baseline="central" x="4.0" y="12.0" font-size="12px" fill="rgb(0,0,0)">&lt;built-in method builtins.exec&gt;</text>
</g></svg>
<svg class="func_g" x="741.0910319202839" y="240" width="138.43590609694309" height="23"><g>
    <title>TestProgram2.py:18:B 11.62% (1 1 2.064e-06 3.507e-06)</title>
    <rect height="100%" width="100%" fill="rgb(255, 90, 49)" rx="2" ry="2" />
    <text alignment-baseline="central" x="4.0" y="12.0" font-size="12px" fill="rgb(0,0,0)">B</text>
</g></svg>
<svg class="func_g" x="741.0910319202839" y="264" width="138.43590609694309" height="23"><g>
    <title>TestProgram2.py:13:A 11.62% (1 1 2.064e-06 3.507e-06)</title>
    <rect height="100%" width="100%" fill="rgb(225, 225, 225)" rx="2" ry="2" />
    <text alignment-baseline="central" x="4.0" y="12.0" font-size="12px" fill="rgb(0,0,0)">A</text>
</g></svg>
<svg class="func_g" x="741.0910319202839" y="288" width="138.43590609694309" height="23"><g>
    <title>TestProgram2.py:2:main 24.98% (1 1 4.437e-06 7.944e-06)</title>
    <rect height="100%" width="100%" fill="rgb(204, 204, 204)" rx="2" ry="2" />
    <text alignment-baseline="central" x="4.0" y="12.0" font-size="12px" fill="rgb(0,0,0)">main</text>
</g></svg>
<svg class="func_g" x="741.0910319202839" y="312" width="138.43590609694309" height="23"><g>
    <title>TestProgram2.py:1:&lt;module&gt; 23.12% (1 1 4.107000000000001e-06 1.3755000000000001e-05)</title>
    <rect height="100%" width="100%" fill="rgb(197, 197, 197)" rx="2" ry="2" />
    <text alignment-baseline="central" x="4.0" y="12.0" font-size="12px" fill="rgb(0,0,0)">&lt;module&gt;</text>
</g></svg>
<svg class="func_g" x="741.0910319202839" y="336" width="138.43590609694309" height="23"><g>
    <title>~:0:&lt;built-in method builtins.exec&gt; 13.66% (1 1 2.426e-06 1.6181e-05)</title>
    <rect height="100%" width="100%" fill="rgb(197, 197, 197)" rx="2" ry="2" />
    <text alignment-baseline="central" x="4.0" y="12.0" font-size="12px" fill="rgb(0,0,0)">&lt;built-in method builtins.exec&gt;</text>
</g></svg>
<svg class="func_g" x="880.5269380172268" y="240" width="22.036649214659686" height="23"><g>
    <title>TestProgram2.py:23:C 1.92% (1 1 3.41e-07 1.443e-06)</title>
    <rect height="100%" width="100%" fill="rgb(255, 165, 95)" rx="2" ry="2" />
    <text alignment-baseline="central" x="4.0" y="12.0" font-size="12px" fill="rgb(0,0,0)">C</text>
</g></svg>
<svg class="func_g" x="880.5269380172268" y="264" width="22.036649214659686" height="23"><g>
    <title>TestProgram2.py:18:B 1.92% (1 1 3.41e-07 1.443e-06)</title>
    <rect height="100%" width="100%" fill="rgb(232, 232, 232)" rx="2" ry="2" />
    <text alignment-baseline="central" x="4.0" y="12.0" font-size="12px" fill="rgb(0,0,0)">B</text>
</g></svg>
<svg class="func_g" x="880.5269380172268" y="288" width="22.036649214659686" height="23"><g>
    <title>TestProgram2.py:13:A 11.62% (1 1 2.064e-06 3.507e-06)</title>
    <rect height="100%" width="100%" fill="rgb(225, 225, 225)" rx="2" ry="2" />
    <text alignment-baseline="central" x="4.0" y="12.0" font-size="12px" fill="rgb(0,0,0)">A</text>
</g></svg>
<svg class="func_g" x="880.5269380172268" y="312" width="22.036649214659686" height="23"><g>
    <title>TestProgram2.py:2:main 24.98% (1 1 4.437e-06 7.944e-06)</title>
    <rect height="100%" width="100%" fill="rgb(204, 204, 204)" rx="2" ry="2" />
    <text alignment-baseline="central" x="4.0" y="12.0" font-size="12px" fill="rgb(0,0,0)">main</text>
</g></svg>
<svg class="func_g" x="880.5269380172268" y="336" width="22.036649214659686" height="23"><g>
    <title>TestProgram2.py:1:&lt;module&gt; 23.12% (1 1 4.107000000000001e-06 1.3755000000000001e-05)</title>
    <rect height="100%" width="100%" fill="rgb(197, 197, 197)" rx="2" ry="2" />
    <text alignment-baseline="central" x="4.0" y="12.0" font-size="12px" fill="rgb(0,0,0)">&lt;module&gt;</text>
</g></svg>
<svg class="func_g" x="880.5269380172268" y="360" width="22.036649214659686" height="23"><g>
    <title>~:0:&lt;built-in method builtins.exec&gt; 13.66% (1 1 2.426e-06 1.6181e-05)</title>
    <rect height="100%" width="100%" fill="rgb(197, 197, 197)" rx="2" ry="2" />
    <text alignment-baseline="central" x="4.0" y="12.0" font-size="12px" fill="rgb(0,0,0)">&lt;built-in method builtins.exec&gt;</text>
</g></svg>
<svg class="func_g" x="903.5635872318867" y="240" width="26.090018577942917" height="23"><g>
    <title>TestProgram2.py:26:D 2.26% (1 1 4.01e-07 1.102e-06)</title>
    <rect height="100%" width="100%" fill="rgb(255, 215, 125)" rx="2" ry="2" />
    <text alignment-baseline="central" x="4.0" y="12.0" font-size="12px" fill="rgb(0,0,0)">D</text>
</g></svg>
<svg class="func_g" x="903.5635872318867" y="264" width="26.090018577942917" height="23"><g>
    <title>TestProgram2.py:23:C 2.26% (1 1 4.01e-07 1.102e-06)</title>
    <rect height="100%" width="100%" fill="rgb(211, 211, 211)" rx="2" ry="2" />
    <text alignment-baseline="central" x="4.0" y="12.0" font-size="12px" fill="rgb(0,0,0)">C</text>
</g></svg>
<svg class="func_g" x="903.5635872318867" y="288" width="26.090018577942917" height="23"><g>
    <title>TestProgram2.py:18:B 1.92% (1 1 3.41e-07 1.443e-06)</title>
    <rect height="100%" width="100%" fill="rgb(232, 232, 232)" rx="2" ry="2" />
    <text alignment-baseline="central" x="4.0" y="12.0" font-size="12px" fill="rgb(0,0,0)">B</text>
</g></svg>
<svg class="func_g" x="903.5635872318867" y="312" width="26.090018577942917" height="23"><g>
    <title>TestProgram2.py:13:A 11.62% (1 1 2.064e-06 3.507e-06)</title>
    <rect height="100%" width="100%" fill="rgb(225, 225, 225)" rx="2" ry="2" />
    <text alignment-baseline="central" x="4.0" y="12.0" font-size="12px" fill="rgb(0,0,0)">A</text>
</g></svg>
<svg class="func_g" x="903.5635872318867" y="336" width="26.090018577942917" height="23"><g>
    <title>TestProgram2.py:2:main 24.98% (1 1 4.437e-06 7.944e-06)</title>
    <rect height="100%" width="100%" fill="rgb(204, 204, 204)" rx="2" ry="2" />
    <text alignment-baseline="central" x="4.0" y="12.0" font-size="12px" fill="rgb(0,0,0)">main</text>
</g></svg>
<svg class="func_g" x="903.5635872318867" y="360" width="26.090018577942917" height="23"><g>
    <title>TestProgram2.py:1:&lt;module&gt; 23.12% (1 1 4.107000000000001e-06 1.3755000000000001e-05)</title>
    <rect height="100%" width="100%" fill="rgb(197, 197, 197)" rx="2" ry="2" />
    <text alignment-baseline="central" x="4.0" y="12.0" font-size="12px" fill="rgb(0,0,0)">&lt;module&gt;</text>
</g></svg>
<svg class="func_g" x="903.5635872318867" y="384" width="26.090018577942917" height="23"><g>
    <title>~:0:&lt;built-in method builtins.exec&gt; 13.66% (1 1 2.426e-06 1.6181e-05)</title>
    <rect height="100%" width="100%" fill="rgb(197, 197, 197)" rx="2" ry="2" />
    <text alignment-baseline="central" x="4.0" y="12.0" font-size="12px" fill="rgb(0,0,0)">&lt;built-in method builtins.exec&gt;</text>
</g></svg>
<svg class="func_g" x="930.6536058098296" y="240" width="29.467826380678943" height="23"><g>
    <title>TestProgram2.py:29:E 2.54% (1 1 4.51e-07 7.01e-07)</title>
    <rect height="100%" width="100%" fill="rgb(255, 165, 95)" rx="2" ry="2" />
    <text alignment-baseline="central" x="4.0" y="12.0" font-size="12px" fill="rgb(0,0,0)">E</text>
</g></svg>
<svg class="func_g" x="930.6536058098296" y="264" width="29.467826380678943" height="23"><g>
    <title>TestProgram2.py:26:D 2.54% (1 1 4.51e-07 7.01e-07)</title>
    <rect height="100%" width="100%" fill="rgb(197, 197, 197)" rx="2" ry="2" />
    <text alignment-baseline="central" x="4.0" y="12.0" font-size="12px" fill="rgb(0,0,0)">D</text>
</g></svg>
<svg class="func_g" x="930.6536058098296" y="288" width="29.467826380678943" height="23"><g>
    <title>TestProgram2.py:23:C 2.26% (1 1 4.01e-07 1.102e-06)</title>
    <rect height="100%" width="100%" fill="rgb(211, 211, 211)" rx="2" ry="2" />
    <text alignment-baseline="central" x="4.0" y="12.0" font-size="12px" fill="rgb(0,0,0)">C</text>
</g></svg>
<svg class="func_g" x="930.6536058098296" y="312" width="29.467826380678936" height="23"><g>
    <title>TestProgram2.py:18:B 1.92% (1 1 3.41e-07 1.443e-06)</title>
    <rect height="100%" width="100%" fill="rgb(232, 232, 232)" rx="2" ry="2" />
    <text alignment-baseline="central" x="4.0" y="12.0" font-size="12px" fill="rgb(0,0,0)">B</text>
</g></svg>
<svg class="func_g" x="930.6536058098296" y="336" width="29.467826380678943" height="23"><g>
    <title>TestProgram2.py:13:A 11.62% (1 1 2.064e-06 3.507e-06)</title>
    <rect height="100%" width="100%" fill="rgb(225, 225, 225)" rx="2" ry="2" />
    <text alignment-baseline="central" x="4.0" y="12.0" font-size="12px" fill="rgb(0,0,0)">A</text>
</g></svg>
<svg class="func_g" x="930.6536058098296" y="360" width="29.467826380678943" height="23"><g>
    <title>TestProgram2.py:2:main 24.98% (1 1 4.437e-06 7.944e-06)</title>
    <rect height="100%" width="100%" fill="rgb(204, 204, 204)" rx="2" ry="2" />
    <text alignment-baseline="central" x="4.0" y="12.0" font-size="12px" fill="rgb(0,0,0)">main</text>
</g></svg>
<svg class="func_g" x="930.6536058098296" y="384" width="29.467826380678943" height="23"><g>
    <title>TestProgram2.py:1:&lt;module&gt; 23.12% (1 1 4.107000000000001e-06 1.3755000000000001e-05)</title>
    <rect height="100%" width="100%" fill="rgb(197, 197, 197)" rx="2" ry="2" />
    <text alignment-baseline="central" x="4.0" y="12.0" font-size="12px" fill="rgb(0,0,0)">&lt;module&gt;</text>
</g></svg>
<svg class="func_g" x="930.6536058098296" y="408" width="29.467826380678943" height="23"><g>
    <title>~:0:&lt;built-in method builtins.exec&gt; 13.66% (1 1 2.426e-06 1.6181e-05)</title>
    <rect height="100%" width="100%" fill="rgb(197, 197, 197)" rx="2" ry="2" />
    <text alignment-baseline="central" x="4.0" y="12.0" font-size="12px" fill="rgb(0,0,0)">&lt;built-in method builtins.exec&gt;</text>
</g></svg>
<svg class="func_g" x="961.1214321905085" y="240" width="15.889039013680122" height="23"><g>
    <title>TestProgram2.py:32:F 1.41% (1 1 2.5000000000000004e-07 2.5000000000000004e-07)</title>
    <rect height="100%" width="100%" fill="rgb(214, 214, 255)" rx="2" ry="2" />
    <text alignment-baseline="central" x="4.0" y="12.0" font-size="12px" fill="rgb(0,0,0)">F</text>
</g></svg>
<svg class="func_g" x="961.1214321905085" y="264" width="15.889039013680122" height="23"><g>
    <title>TestProgram2.py:29:E 1.41% (1 1 2.5000000000000004e-07 2.5000000000000004e-07)</title>
    <rect height="100%" width="100%" fill="rgb(211, 211, 211)" rx="2" ry="2" />
    <text alignment-baseline="central" x="4.0" y="12.0" font-size="12px" fill="rgb(0,0,0)">E</text>
</g></svg>
<svg class="func_g" x="961.1214321905085" y="288" width="15.889039013680122" height="23"><g>
    <title>TestProgram2.py:26:D 2.54% (1 1 4.51e-07 7.01e-07)</title>
    <rect height="100%" width="100%" fill="rgb(197, 197, 197)" rx="2" ry="2" />
    <text alignment-baseline="central" x="4.0" y="12.0" font-size="12px" fill="rgb(0,0,0)">D</text>
</g></svg>
<svg class="func_g" x="961.1214321905085" y="312" width="15.889039013680122" height="23"><g>
    <title>TestProgram2.py:23:C 2.26% (1 1 4.01e-07 1.102e-06)</title>
    <rect height="100%" width="100%" fill="rgb(211, 211, 211)" rx="2" ry="2" />
    <text alignment-baseline="central" x="4.0" y="12.0" font-size="12px" fill="rgb(0,0,0)">C</text>
</g></svg>
<svg class="func_g" x="961.1214321905085" y="336" width="15.889039013680122" height="23"><g>
    <title>TestProgram2.py:18:B 1.92% (1 1 3.41e-07 1.443e-06)</title>
    <rect height="100%" width="100%" fill="rgb(232, 232, 232)" rx="2" ry="2" />
    <text alignment-baseline="central" x="4.0" y="12.0" font-size="12px" fill="rgb(0,0,0)">B</text>
</g></svg>
<svg class="func_g" x="961.1214321905085" y="360" width="15.889039013680122" height="23"><g>
    <title>TestProgram2.py:13:A 11.62% (1 1 2.064e-06 3.507e-06)</title>
    <rect height="100%" width="100%" fill="rgb(225, 225, 225)" rx="2" ry="2" />
    <text alignment-baseline="central" x="4.0" y="12.0" font-size="12px" fill="rgb(0,0,0)">A</text>
</g></svg>
<svg class="func_g" x="961.1214321905085" y="384" width="15.889039013680122" height="23"><g>
    <title>TestProgram2.py:2:main 24.98% (1 1 4.437e-06 7.944e-06)</title>
    <rect height="100%" width="100%" fill="rgb(204, 204, 204)" rx="2" ry="2" />
    <text alignment-baseline="central" x="4.0" y="12.0" font-size="12px" fill="rgb(0,0,0)">main</text>
</g></svg>
<svg class="func_g" x="961.1214321905085" y="408" width="15.889039013680122" height="23"><g>
    <title>TestProgram2.py:1:&lt;module&gt; 23.12% (1 1 4.107000000000001e-06 1.3755000000000001e-05)</title>
    <rect height="100%" width="100%" fill="rgb(197, 197, 197)" rx="2" ry="2" />
    <text alignment-baseline="central" x="4.0" y="12.0" font-size="12px" fill="rgb(0,0,0)">&lt;module&gt;</text>
</g></svg>
<svg class="func_g" x="961.1214321905085" y="432" width="15.889039013680122" height="23"><g>
    <title>~:0:&lt;built-in method builtins.exec&gt; 13.66% (1 1 2.426e-06 1.6181e-05)</title>
    <rect height="100%" width="100%" fill="rgb(197, 197, 197)" rx="2" ry="2" />
    <text alignment-baseline="central" x="4.0" y="12.0" font-size="12px" fill="rgb(0,0,0)">&lt;built-in method builtins.exec&gt;</text>
</g></svg>
<svg class="func_g" x="978.0104712041885" y="240" width="30.886505657828078" height="23"><g>
    <title>TestProgram2.py:35:G 2.66% (1 1 4.7200000000000004e-07 1.7040000000000001e-06)</title>
    <rect height="100%" width="100%" fill="rgb(255, 165, 95)" rx="2" ry="2" />
    <text alignment-baseline="central" x="4.0" y="12.0" font-size="12px" fill="rgb(0,0,0)">G</text>
</g></svg>
<svg class="func_g" x="978.0104712041885" y="264" width="30.886505657828078" height="23"><g>
    <title>TestProgram2.py:2:main 2.66% (1 1 4.7200000000000004e-07 1.7040000000000001e-06)</title>
    <rect height="100%" width="100%" fill="rgb(204, 204, 204)" rx="2" ry="2" />
    <text alignment-baseline="central" x="4.0" y="12.0" font-size="12px" fill="rgb(0,0,0)">main</text>
</g></svg>
<svg class="func_g" x="978.0104712041885" y="288" width="30.886505657828078" height="23"><g>
    <title>TestProgram2.py:1:&lt;module&gt; 23.12% (1 1 4.107000000000001e-06 1.3755000000000001e-05)</title>
    <rect height="100%" width="100%" fill="rgb(197, 197, 197)" rx="2" ry="2" />
    <text alignment-baseline="central" x="4.0" y="12.0" font-size="12px" fill="rgb(0,0,0)">&lt;module&gt;</text>
</g></svg>
<svg class="func_g" x="978.0104712041885" y="312" width="30.886505657828078" height="23"><g>
    <title>~:0:&lt;built-in method builtins.exec&gt; 13.66% (1 1 2.426e-06 1.6181e-05)</title>
    <rect height="100%" width="100%" fill="rgb(197, 197, 197)" rx="2" ry="2" />
    <text alignment-baseline="central" x="4.0" y="12.0" font-size="12px" fill="rgb(0,0,0)">&lt;built-in method builtins.exec&gt;</text>
</g></svg>
<svg class="func_g" x="1009.8969768620167" y="240" width="26.090018577942917" height="23"><g>
    <title>TestProgram2.py:39:H 2.26% (1 1 4.01e-07 1.232e-06)</title>
    <rect height="100%" width="100%" fill="rgb(255, 190, 110)" rx="2" ry="2" />
    <text alignment-baseline="central" x="4.0" y="12.0" font-size="12px" fill="rgb(0,0,0)">H</text>
</g></svg>
<svg class="func_g" x="1009.8969768620167" y="264" width="26.090018577942917" height="23"><g>
    <title>TestProgram2.py:35:G 2.26% (1 1 4.01e-07 1.232e-06)</title>
    <rect height="100%" width="100%" fill="rgb(211, 211, 211)" rx="2" ry="2" />
    <text alignment-baseline="central" x="4.0" y="12.0" font-size="12px" fill="rgb(0,0,0)">G</text>
</g></svg>
<svg class="func_g" x="1009.8969768620167" y="288" width="26.090018577942917" height="23"><g>
    <title>TestProgram2.py:2:main 2.66% (1 1 4.7200000000000004e-07 1.7040000000000001e-06)</title>
    <rect height="100%" width="100%" fill="rgb(204, 204, 204)" rx="2" ry="2" />
    <text alignment-baseline="central" x="4.0" y="12.0" font-size="12px" fill="rgb(0,0,0)">main</text>
</g></svg>
<svg class="func_g" x="1009.8969768620167" y="312" width="26.090018577942917" height="23"><g>
    <title>TestProgram2.py:1:&lt;module&gt; 23.12% (1 1 4.107000000000001e-06 1.3755000000000001e-05)</title>
    <rect height="100%" width="100%" fill="rgb(197, 197, 197)" rx="2" ry="2" />
    <text alignment-baseline="central" x="4.0" y="12.0" font-size="12px" fill="rgb(0,0,0)">&lt;module&gt;</text>
</g></svg>
<svg class="func_g" x="1009.8969768620167" y="336" width="26.090018577942917" height="23"><g>
    <title>~:0:&lt;built-in method builtins.exec&gt; 13.66% (1 1 2.426e-06 1.6181e-05)</title>
    <rect height="100%" width="100%" fill="rgb(197, 197, 197)" rx="2" ry="2" />
    <text alignment-baseline="central" x="4.0" y="12.0" font-size="12px" fill="rgb(0,0,0)">&lt;built-in method builtins.exec&gt;</text>
</g></svg>
<svg class="func_g" x="1036.9869954399594" y="240" width="23.32021617969938" height="23"><g>
    <title>TestProgram2.py:42:I 2.03% (1 1 3.6000000000000005e-07 8.310000000000001e-07)</title>
    <rect height="100%" width="100%" fill="rgb(255, 165, 95)" rx="2" ry="2" />
    <text alignment-baseline="central" x="4.0" y="12.0" font-size="12px" fill="rgb(0,0,0)">I</text>
</g></svg>
<svg class="func_g" x="1036.9869954399594" y="264" width="23.32021617969938" height="23"><g>
    <title>TestProgram2.py:39:H 2.03% (1 1 3.6000000000000005e-07 8.310000000000001e-07)</title>
    <rect height="100%" width="100%" fill="rgb(204, 204, 204)" rx="2" ry="2" />
    <text alignment-baseline="central" x="4.0" y="12.0" font-size="12px" fill="rgb(0,0,0)">H</text>
</g></svg>
<svg class="func_g" x="1036.9869954399594" y="288" width="23.32021617969938" height="23"><g>
    <title>TestProgram2.py:35:G 2.26% (1 1 4.01e-07 1.232e-06)</title>
    <rect height="100%" width="100%" fill="rgb(211, 211, 211)" rx="2" ry="2" />
    <text alignment-baseline="central" x="4.0" y="12.0" font-size="12px" fill="rgb(0,0,0)">G</text>
</g></svg>
<svg class="func_g" x="1036.9869954399594" y="312" width="23.32021617969938" height="23"><g>
    <title>TestProgram2.py:2:main 2.66% (1 1 4.7200000000000004e-07 1.7040000000000001e-06)</title>
    <rect height="100%" width="100%" fill="rgb(204, 204, 204)" rx="2" ry="2" />
    <text alignment-baseline="central" x="4.0" y="12.0" font-size="12px" fill="rgb(0,0,0)">main</text>
</g></svg>
<svg class="func_g" x="1036.9869954399594" y="336" width="23.32021617969938" height="23"><g>
    <title>TestProgram2.py:1:&lt;module&gt; 23.12% (1 1 4.107000000000001e-06 1.3755000000000001e-05)</title>
    <rect height="100%" width="100%" fill="rgb(197, 197, 197)" rx="2" ry="2" />
    <text alignment-baseline="central" x="4.0" y="12.0" font-size="12px" fill="rgb(0,0,0)">&lt;module&gt;</text>
</g></svg>
<svg class="func_g" x="1036.9869954399594" y="360" width="23.32021617969938" height="23"><g>
    <title>~:0:&lt;built-in method builtins.exec&gt; 13.66% (1 1 2.426e-06 1.6181e-05)</title>
    <rect height="100%" width="100%" fill="rgb(197, 197, 197)" rx="2" ry="2" />
    <text alignment-baseline="central" x="4.0" y="12.0" font-size="12px" fill="rgb(0,0,0)">&lt;built-in method builtins.exec&gt;</text>
</g></svg>
<svg class="func_g" x="1061.307211619659" y="240" width="22.036649214659686" height="23"><g>
    <title>TestProgram2.py:45:J 1.92% (1 1 3.41e-07 4.71e-07)</title>
    <rect height="100%" width="100%" fill="rgb(255, 215, 125)" rx="2" ry="2" />
    <text alignment-baseline="central" x="4.0" y="12.0" font-size="12px" fill="rgb(0,0,0)">J</text>
</g></svg>
<svg class="func_g" x="1061.307211619659" y="264" width="22.036649214659686" height="23"><g>
    <title>TestProgram2.py:42:I 1.92% (1 1 3.41e-07 4.71e-07)</title>
    <rect height="100%" width="100%" fill="rgb(211, 211, 211)" rx="2" ry="2" />
    <text alignment-baseline="central" x="4.0" y="12.0" font-size="12px" fill="rgb(0,0,0)">I</text>
</g></svg>
<svg class="func_g" x="1061.307211619659" y="288" width="22.036649214659686" height="23"><g>
    <title>TestProgram2.py:39:H 2.03% (1 1 3.6000000000000005e-07 8.310000000000001e-07)</title>
    <rect height="100%" width="100%" fill="rgb(204, 204, 204)" rx="2" ry="2" />
    <text alignment-baseline="central" x="4.0" y="12.0" font-size="12px" fill="rgb(0,0,0)">H</text>
</g></svg>
<svg class="func_g" x="1061.307211619659" y="312" width="22.03664921465969" height="23"><g>
    <title>TestProgram2.py:35:G 2.26% (1 1 4.01e-07 1.232e-06)</title>
    <rect height="100%" width="100%" fill="rgb(211, 211, 211)" rx="2" ry="2" />
    <text alignment-baseline="central" x="4.0" y="12.0" font-size="12px" fill="rgb(0,0,0)">G</text>
</g></svg>
<svg class="func_g" x="1061.307211619659" y="336" width="22.03664921465969" height="23"><g>
    <title>TestProgram2.py:2:main 2.66% (1 1 4.7200000000000004e-07 1.7040000000000001e-06)</title>
    <rect height="100%" width="100%" fill="rgb(204, 204, 204)" rx="2" ry="2" />
    <text alignment-baseline="central" x="4.0" y="12.0" font-size="12px" fill="rgb(0,0,0)">main</text>
</g></svg>
<svg class="func_g" x="1061.307211619659" y="360" width="22.03664921465969" height="23"><g>
    <title>TestProgram2.py:1:&lt;module&gt; 23.12% (1 1 4.107000000000001e-06 1.3755000000000001e-05)</title>
    <rect height="100%" width="100%" fill="rgb(197, 197, 197)" rx="2" ry="2" />
    <text alignment-baseline="central" x="4.0" y="12.0" font-size="12px" fill="rgb(0,0,0)">&lt;module&gt;</text>
</g></svg>
<svg class="func_g" x="1061.307211619659" y="384" width="22.03664921465969" height="23"><g>
    <title>~:0:&lt;built-in method builtins.exec&gt; 13.66% (1 1 2.426e-06 1.6181e-05)</title>
    <rect height="100%" width="100%" fill="rgb(197, 197, 197)" rx="2" ry="2" />
    <text alignment-baseline="central" x="4.0" y="12.0" font-size="12px" fill="rgb(0,0,0)">&lt;built-in method builtins.exec&gt;</text>
</g></svg>
<svg class="func_g" x="1084.3438608343185" y="240" width="7.782300287113664" height="23"><g>
    <title>TestProgram2.py:48:K 0.73% (1 1 1.3e-07 1.3e-07)</title>
    <rect height="100%" width="100%" fill="rgb(166, 166, 255)" rx="2" ry="2" />
    <text alignment-baseline="central" x="4.0" y="12.0" font-size="12px" fill="rgb(0,0,0)">K</text>
</g></svg>
<svg class="func_g" x="1084.3438608343185" y="264" width="7.782300287113664" height="23"><g>
    <title>TestProgram2.py:45:J 0.73% (1 1 1.3e-07 1.3e-07)</title>
    <rect height="100%" width="100%" fill="rgb(197, 197, 197)" rx="2" ry="2" />
    <text alignment-baseline="central" x="4.0" y="12.0" font-size="12px" fill="rgb(0,0,0)">J</text>
</g></svg>
<svg class="func_g" x="1084.3438608343185" y="288" width="7.782300287113664" height="23"><g>
    <title>TestProgram2.py:42:I 1.92% (1 1 3.41e-07 4.71e-07)</title>
    <rect height="100%" width="100%" fill="rgb(211, 211, 211)" rx="2" ry="2" />
    <text alignment-baseline="central" x="4.0" y="12.0" font-size="12px" fill="rgb(0,0,0)">I</text>
</g></svg>
<svg class="func_g" x="1084.3438608343185" y="312" width="7.782300287113664" height="23"><g>
    <title>TestProgram2.py:39:H 2.03% (1 1 3.6000000000000005e-07 8.310000000000001e-07)</title>
    <rect height="100%" width="100%" fill="rgb(204, 204, 204)" rx="2" ry="2" />
    <text alignment-baseline="central" x="4.0" y="12.0" font-size="12px" fill="rgb(0,0,0)">H</text>
</g></svg>
<svg class="func_g" x="1084.3438608343185" y="336" width="7.782300287113664" height="23"><g>
    <title>TestProgram2.py:35:G 2.26% (1 1 4.01e-07 1.232e-06)</title>
    <rect height="100%" width="100%" fill="rgb(211, 211, 211)" rx="2" ry="2" />
    <text alignment-baseline="central" x="4.0" y="12.0" font-size="12px" fill="rgb(0,0,0)">G</text>
</g></svg>
<svg class="func_g" x="1084.3438608343185" y="360" width="7.782300287113664" height="23"><g>
    <title>TestProgram2.py:2:main 2.66% (1 1 4.7200000000000004e-07 1.7040000000000001e-06)</title>
    <rect height="100%" width="100%" fill="rgb(204, 204, 204)" rx="2" ry="2" />
    <text alignment-baseline="central" x="4.0" y="12.0" font-size="12px" fill="rgb(0,0,0)">main</text>
</g></svg>
<svg class="func_g" x="1084.3438608343185" y="384" width="7.782300287113664" height="23"><g>
    <title>TestProgram2.py:1:&lt;module&gt; 23.12% (1 1 4.107000000000001e-06 1.3755000000000001e-05)</title>
    <rect height="100%" width="100%" fill="rgb(197, 197, 197)" rx="2" ry="2" />
    <text alignment-baseline="central" x="4.0" y="12.0" font-size="12px" fill="rgb(0,0,0)">&lt;module&gt;</text>
</g></svg>
<svg class="func_g" x="1084.3438608343185" y="408" width="7.782300287113664" height="23"><g>
    <title>~:0:&lt;built-in method builtins.exec&gt; 13.66% (1 1 2.426e-06 1.6181e-05)</title>
    <rect height="100%" width="100%" fill="rgb(197, 197, 197)" rx="2" ry="2" />
    <text alignment-baseline="central" x="4.0" y="12.0" font-size="12px" fill="rgb(0,0,0)">&lt;built-in method builtins.exec&gt;</text>
</g></svg>
<svg class="func_g" x="1093.1261611214322" y="240" width="91.0114845465293" height="23"><g>
    <title>~:0:&lt;built-in method builtins.exec&gt; 7.67% (1 1 1.362e-06 1.7543e-05)</title>
    <rect height="100%" width="100%" fill="rgb(255, 215, 125)" rx="2" ry="2" />
    <text alignment-baseline="central" x="4.0" y="12.0" font-size="12px" fill="rgb(0,0,0)">&lt;built-in method builtins.exec&gt;</text>
</g></svg>
<svg class="func_g" x="1185.1376456679616" y="240" width="13.862354332038509" height="23"><g>
    <title>~:0:&lt;method 'disable' of '_lsprof.Profiler' objects&gt; 1.24% (1 1 2.2e-07 2.2e-07)</title>
    <rect height="100%" width="100%" fill="rgb(214, 214, 255)" rx="2" ry="2" />
    <text alignment-baseline="central" x="4.0" y="12.0" font-size="12px" fill="rgb(0,0,0)">&lt;method 'disable' of '_lsprof.Profiler' objects&gt;</text>
</g></svg>
</svg>
